<svg width="39" height="26" viewBox="0 0 39 26" fill="none" xmlns="http://www.w3.org/2000/svg">
<path d="M1.7636 0.781494H36.7164C36.9395 0.785915 37.1594 0.83453 37.3638 0.924072C37.5682 1.01361 37.753 1.14244 37.9076 1.30347C38.0621 1.46449 38.1836 1.65457 38.2648 1.86255C38.346 2.07053 38.3854 2.29261 38.3809 2.51587V24.1917C38.3898 24.6424 38.2194 25.0781 37.9072 25.4031C37.595 25.7281 37.1668 25.9156 36.7164 25.9246H1.7636C1.31326 25.9156 0.884869 25.7281 0.572704 25.4031C0.260539 25.0781 0.090147 24.6424 0.098979 24.1917V2.51587C0.094473 2.29261 0.133991 2.07053 0.215215 1.86255C0.296439 1.65457 0.417756 1.46449 0.572338 1.30347C0.72692 1.14244 0.911678 1.01361 1.11607 0.924072C1.32047 0.83453 1.54053 0.785915 1.7636 0.781494Z" fill="#353A40"/>
<path d="M22.7688 17.3458C22.5047 17.2114 22.2874 16.9997 22.1454 16.7394C21.9751 16.4207 21.8924 16.0629 21.9057 15.7018C21.891 15.4556 21.9252 15.209 22.0065 14.9762C22.0878 14.7434 22.2146 14.5292 22.3793 14.3458C22.5543 14.1789 22.7618 14.0497 22.9889 13.9664C23.2159 13.8832 23.4577 13.8473 23.6991 13.8615C23.9423 13.8458 24.1862 13.88 24.4158 13.962C24.6453 14.0441 24.8557 14.1722 25.034 14.3385C25.1972 14.5185 25.3226 14.7293 25.4031 14.9586C25.4836 15.1879 25.5175 15.4309 25.5026 15.6735C25.5175 16.0251 25.4489 16.3753 25.3027 16.6954C25.1706 16.956 24.965 17.1721 24.7113 17.3165C24.4142 17.4738 24.081 17.5505 23.7451 17.5387C23.4091 17.5508 23.0749 17.4849 22.7688 17.3458ZM23.1745 14.9288C23.0457 15.1672 22.9782 15.4338 22.9782 15.7047C22.9782 15.9757 23.0457 16.2423 23.1745 16.4806C23.2424 16.5544 23.325 16.6131 23.4168 16.6535C23.5087 16.6938 23.6078 16.715 23.7081 16.715C23.8084 16.715 23.9075 16.6938 23.9994 16.6535C24.0912 16.6131 24.1737 16.5544 24.2416 16.4806C24.393 16.2333 24.4598 15.9431 24.4315 15.6544C24.453 15.3939 24.3823 15.1342 24.2317 14.9205C24.1657 14.844 24.0831 14.7838 23.9903 14.7438C23.8976 14.7038 23.7971 14.6851 23.6961 14.6896C23.5967 14.6868 23.498 14.7067 23.4076 14.7482C23.3171 14.7896 23.2373 14.8517 23.1745 14.9288ZM13.2708 17.5026C13.0966 17.4854 12.9272 17.4359 12.7712 17.3566C12.6297 17.2793 12.5049 17.1749 12.4036 17.0494C12.2999 16.9304 12.2219 16.7915 12.1748 16.6408C12.1135 16.4464 12.0799 16.2444 12.0749 16.0407V13.9225H13.1449V16.0905C13.1401 16.1729 13.1517 16.2557 13.1789 16.3336C13.2062 16.4116 13.2487 16.4831 13.3038 16.5446C13.4251 16.6488 13.5795 16.7062 13.7394 16.7062C13.8992 16.7062 14.0538 16.6488 14.1751 16.5446C14.2301 16.4825 14.2725 16.4101 14.2996 16.3317C14.3267 16.2532 14.3379 16.1704 14.3329 16.0875V13.9196H15.403V16.0377C15.4036 16.2419 15.3698 16.4448 15.3031 16.6378C15.2415 16.8215 15.139 16.9884 15.0033 17.1266C14.8837 17.2572 14.7367 17.3594 14.5728 17.4264C14.3317 17.5104 14.0775 17.5505 13.8223 17.5446C13.6381 17.5409 13.4544 17.5266 13.2719 17.5016L13.2708 17.5026ZM28.3972 17.4786L27.0982 15.5265V17.4786H26.089V13.9235H27.0882L28.3962 15.8898V13.9235H29.4073V17.4786H28.3972ZM18.4275 17.4786L17.1286 15.5265V17.4786H16.1195V13.9235H17.1186L18.4255 15.8898V13.9235H19.4366V17.4786H18.4275ZM20.196 17.4694V13.9205H21.2751V17.4694H20.196ZM11.9979 12.4884C11.7666 12.2485 11.6292 11.9336 11.6112 11.6007L12.6324 11.5358C12.6431 11.6745 12.6891 11.8077 12.7662 11.9235C12.8219 11.9951 12.894 12.0522 12.9765 12.09C13.0589 12.1278 13.1492 12.1454 13.2398 12.1408C13.3677 12.1493 13.4943 12.1094 13.5946 12.0294C13.6321 11.9997 13.6625 11.9621 13.6836 11.9191C13.7047 11.8761 13.716 11.8288 13.7166 11.7809C13.7172 11.733 13.707 11.6857 13.6869 11.6422C13.6669 11.5987 13.6374 11.5601 13.6006 11.5294C13.4345 11.4217 13.2469 11.3513 13.051 11.3234C12.6859 11.2622 12.3408 11.1144 12.0449 10.8917C11.9473 10.8067 11.8697 10.7008 11.8179 10.5822C11.7661 10.4635 11.7412 10.3351 11.7451 10.2057C11.7456 10.022 11.7994 9.84228 11.9 9.68861C12.0138 9.51718 12.1764 9.38398 12.3666 9.30579C12.6389 9.20144 12.9296 9.15397 13.2209 9.16663C13.5775 9.14282 13.9326 9.23157 14.236 9.42054C14.3585 9.51748 14.4588 9.63965 14.5305 9.77845C14.6021 9.91726 14.6435 10.0697 14.6517 10.2257L13.6405 10.2868C13.6272 10.1539 13.5671 10.03 13.4707 9.93763C13.3687 9.8597 13.242 9.82113 13.1139 9.82874C13.0134 9.82141 12.9135 9.85018 12.8322 9.9098C12.8022 9.93375 12.7781 9.96402 12.7617 9.99867C12.7452 10.0333 12.7369 10.0711 12.7373 10.1095C12.7381 10.1395 12.7456 10.1688 12.7592 10.1954C12.7729 10.2221 12.7924 10.2457 12.8162 10.2638C12.9253 10.3333 13.0485 10.3776 13.1769 10.3937C13.5242 10.458 13.8626 10.5634 14.1851 10.7076C14.3669 10.7949 14.5203 10.9318 14.6277 11.1027C14.7205 11.2619 14.7682 11.4433 14.7656 11.6276C14.7669 11.8515 14.7025 12.0707 14.5807 12.2584C14.4554 12.4522 14.2757 12.6046 14.0642 12.6964C13.7991 12.8035 13.5146 12.8546 13.2288 12.8458C12.7875 12.892 12.3458 12.7631 11.9979 12.4874V12.4884ZM28.3981 12.7785L27.0993 10.8258V12.7785H26.0901V9.22376H27.0893L28.3972 11.1906V9.22376H29.4083V12.7785H28.3981ZM24.5264 12.7785L23.9529 11.6915C23.9067 11.5885 23.8405 11.4957 23.7581 11.4186C23.6812 11.3636 23.5888 11.3345 23.4943 11.3356H23.3994V12.7785H22.3212V9.22376H24.1088C24.3652 9.21369 24.6216 9.24295 24.8691 9.31068C25.0429 9.36751 25.1926 9.48105 25.2938 9.63343C25.4049 9.80451 25.461 10.0057 25.4547 10.2096C25.4592 10.3878 25.4167 10.5642 25.3317 10.7208C25.2494 10.8632 25.1326 10.9822 24.9921 11.0675C24.8747 11.1343 24.7475 11.1823 24.6153 11.2096C24.7144 11.2389 24.8087 11.2826 24.8951 11.3395C24.9593 11.3951 25.0167 11.4582 25.066 11.5275C25.123 11.5959 25.1735 11.6698 25.2168 11.7477L25.7364 12.7785H24.5264ZM23.4004 10.6627H23.853C23.9489 10.6558 24.0438 10.6394 24.1367 10.6144C24.2063 10.6001 24.2683 10.5607 24.3106 10.5035C24.3557 10.4441 24.3796 10.3712 24.3786 10.2965C24.3817 10.2472 24.3736 10.1978 24.3551 10.152C24.3366 10.1061 24.3081 10.0648 24.2716 10.0314C24.152 9.95784 24.0115 9.92603 23.8719 9.94056H23.4004V10.6627ZM18.8042 12.7785V9.22376H21.6798V9.98255H19.8813V10.5475H21.5519V11.2736H19.8813V11.9738H21.7348V12.7785H18.8042ZM16.1544 12.7785V10.1017H15.0603V9.22376H18.3226V10.1017H17.2235V12.7785H16.1544ZM8.29594 12.7785V9.22376H11.1716V9.98255H9.37304V10.5475H11.0427V11.2736H9.36511V11.9738H11.2166V12.7785H8.29594ZM6.13076 12.7785L5.52226 10.5397L4.91583 12.7785H3.86373L3.09131 9.22376H4.11048L4.47723 11.2135L5.01475 9.22376H6.02989L6.56838 11.2116L6.93514 9.22376H7.94931L7.18396 12.7785H6.13076Z" fill="#ECD345"/>
<path d="M34.1945 17.5408V9.16089H35.3935V17.5408H34.1945ZM31.207 17.5408V9.16089H32.406V17.5408H31.207Z" fill="#ECD345"/>
</svg>
