<svg width="40" height="26" viewBox="0 0 40 26" fill="none" xmlns="http://www.w3.org/2000/svg">
<path d="M2.58196 0.58374H37.5256C37.976 0.59293 38.4043 0.780534 38.7163 1.10571C39.0283 1.43089 39.1984 1.8669 39.1893 2.31763V23.9919C39.1984 24.4427 39.0283 24.8782 38.7163 25.2034C38.4043 25.5285 37.976 25.7166 37.5256 25.7258H2.58196C2.13162 25.7166 1.70329 25.5285 1.39131 25.2034C1.07933 24.8782 0.909214 24.4427 0.918316 23.9919V2.31763C0.909214 1.8669 1.07933 1.43089 1.39131 1.10571C1.70329 0.780534 2.13162 0.59293 2.58196 0.58374Z" fill="#5870BE"/>
<path d="M17.6594 13.1505C17.6598 11.3748 18.1863 9.63901 19.1723 8.16271C20.1583 6.6864 21.5596 5.53588 23.1989 4.85656C24.8382 4.17723 26.6419 3.9997 28.382 4.3463C30.1222 4.6929 31.7206 5.54811 32.9751 6.80382C34.2296 8.05954 35.084 9.65935 35.4301 11.401C35.7762 13.1426 35.5985 14.9479 34.9195 16.5885C34.2406 18.2291 33.0909 19.6311 31.6158 20.6178C30.1406 21.6044 28.4062 22.1313 26.6319 22.1315C25.4535 22.1315 24.2867 21.8992 23.198 21.4479C22.1093 20.9965 21.1202 20.3351 20.287 19.5011C19.4538 18.6671 18.7929 17.6771 18.3421 16.5875C17.8912 15.4979 17.6593 14.3299 17.6594 13.1505Z" fill="#FFAF38"/>
<path d="M12.8843 22.1296C11.3545 22.1294 9.85017 21.7378 8.51419 20.9919C7.1782 20.246 6.05496 19.1706 5.25117 17.8679C4.44738 16.5652 3.98973 15.0786 3.92172 13.549C3.8537 12.0195 4.17759 10.4976 4.86258 9.12861C5.54756 7.75959 6.57094 6.58898 7.83543 5.72725C9.09993 4.86552 10.5635 4.34146 12.0872 4.20527C13.611 4.06909 15.1442 4.32507 16.5413 4.94893C17.9383 5.57278 19.1528 6.54384 20.0693 7.76973H18.8704V8.36983H20.482C20.6029 8.56083 20.7168 8.75869 20.8227 8.95869H18.2708V9.55879H21.1114C21.1994 9.75879 21.2784 9.95889 21.3483 10.1589H17.6713V10.7585H21.5361C22.0219 12.5325 21.955 14.4128 21.3443 16.1477H17.6713V16.7478H21.1074C21.0175 16.9548 20.9207 17.1476 20.8227 17.3386H18.2708V17.9387H20.475C20.3421 18.1487 20.2033 18.3498 20.0624 18.5388H18.8704V19.1389H19.5698C18.7277 20.0792 17.6972 20.8315 16.5453 21.3469C15.3934 21.8622 14.146 22.1287 12.8843 22.1296Z" fill="#E63737"/>
<path d="M3.04186 14.8027L3.58811 10.5426L4.4366 10.6516L5.05815 13.7974C5.11512 14.0903 5.15597 14.3092 5.1807 14.4542C5.249 14.3054 5.35374 14.0875 5.49492 13.8004L6.89492 10.9674L7.65334 11.0648L7.10709 15.3248L6.56371 15.255L7.0209 11.6895L5.32583 15.096L4.81731 15.0307L4.05026 11.2459L3.58524 14.8725L3.04186 14.8027ZM10.0123 15.311C9.79749 15.4508 9.59564 15.543 9.40679 15.5877C9.21987 15.6326 9.02374 15.6419 8.81839 15.6155C8.47938 15.572 8.22938 15.4562 8.0684 15.2681C7.90767 15.0781 7.84382 14.8543 7.87686 14.5966C7.89623 14.4455 7.94777 14.3123 8.03147 14.1971C8.11736 14.0801 8.22035 13.9909 8.34046 13.9296C8.46251 13.8684 8.59576 13.8275 8.7402 13.8066C8.84635 13.7927 9.00468 13.7865 9.2152 13.7879C9.64397 13.7918 9.96259 13.7716 10.1711 13.7275C10.1822 13.6561 10.189 13.6107 10.1915 13.5913C10.2188 13.3782 10.1887 13.2217 10.101 13.1219C9.98253 12.9865 9.79154 12.9019 9.52808 12.8681C9.28205 12.8365 9.09437 12.8567 8.96502 12.9287C8.83785 12.999 8.73215 13.14 8.6479 13.3517L8.14542 13.2163C8.21998 13.0033 8.31911 12.8369 8.44279 12.7169C8.56673 12.595 8.73403 12.5111 8.94469 12.4653C9.1556 12.4176 9.39375 12.4107 9.65915 12.4448C9.92261 12.4787 10.1327 12.5372 10.2894 12.6203C10.4461 12.7034 10.5571 12.7975 10.6225 12.9023C10.688 13.0053 10.7271 13.1304 10.7397 13.2778C10.7457 13.3691 10.7338 13.531 10.704 13.7635L10.6146 14.4609C10.5522 14.9472 10.5234 15.2566 10.5281 15.3891C10.5349 15.5199 10.5637 15.6487 10.6144 15.7753L10.0681 15.7051C10.0278 15.5897 10.0092 15.4583 10.0123 15.311ZM10.1185 14.1373C9.91874 14.1904 9.62553 14.2197 9.23888 14.2251C9.01987 14.2285 8.86333 14.2439 8.76925 14.2712C8.67517 14.2985 8.59907 14.3468 8.54095 14.4161C8.48308 14.4835 8.44831 14.5627 8.43664 14.6538C8.41875 14.7933 8.45615 14.9162 8.54884 15.0226C8.64346 15.1293 8.79248 15.1957 8.99588 15.2218C9.19735 15.2477 9.38213 15.2271 9.55023 15.1601C9.71857 15.0912 9.84936 14.9849 9.94259 14.8413C10.0139 14.7303 10.0644 14.5596 10.0939 14.3291L10.1185 14.1373ZM11.1713 14.9105L11.699 14.8956C11.7015 15.1066 11.7615 15.2758 11.8791 15.4031C11.9986 15.5307 12.1775 15.6098 12.4157 15.6404C12.6559 15.6713 12.8404 15.6457 12.969 15.5638C13.0979 15.4799 13.1708 15.3721 13.1877 15.2404C13.2029 15.1222 13.1635 15.0226 13.0695 14.9416C13.0038 14.8859 12.8331 14.804 12.5575 14.6957C12.1864 14.5496 11.9307 14.4321 11.7905 14.3432C11.6525 14.2526 11.5526 14.1403 11.491 14.0064C11.4316 13.8707 11.4116 13.7274 11.431 13.5763C11.4486 13.4387 11.4959 13.3158 11.5728 13.2075C11.6519 13.0976 11.7506 13.0108 11.8691 12.9473C11.9581 12.8977 12.075 12.8615 12.2197 12.8387C12.3666 12.8142 12.5204 12.8123 12.6812 12.833C12.9233 12.8641 13.131 12.9262 13.3042 13.0193C13.4793 13.1127 13.6027 13.2251 13.6745 13.3564C13.7465 13.4857 13.7862 13.6523 13.7935 13.8561L13.2731 13.8601C13.2703 13.6983 13.2184 13.5656 13.1174 13.462C13.0184 13.3588 12.8672 13.294 12.6638 13.2679C12.4236 13.2371 12.2471 13.2548 12.1342 13.321C12.0214 13.3872 11.9581 13.4736 11.9444 13.5802C11.9357 13.648 11.9492 13.7117 11.9849 13.7715C12.0203 13.8331 12.0812 13.8882 12.1675 13.9367C12.2173 13.9628 12.3656 14.0271 12.6124 14.1297C12.9697 14.276 13.2169 14.3905 13.354 14.4731C13.4933 14.554 13.5969 14.6598 13.6648 14.7907C13.7327 14.9215 13.7552 15.076 13.7324 15.2542C13.71 15.4286 13.6376 15.5866 13.515 15.7284C13.3947 15.8685 13.2331 15.9689 13.0304 16.0295C12.8279 16.0882 12.6056 16.102 12.3635 16.0709C11.9625 16.0193 11.6671 15.8967 11.4773 15.703C11.2894 15.5095 11.1874 15.2454 11.1713 14.9105ZM15.4399 15.9195L15.4562 16.3913C15.305 16.4034 15.1713 16.402 15.0551 16.387C14.8653 16.3626 14.7219 16.3137 14.625 16.2402C14.5281 16.1667 14.4645 16.0788 14.4343 15.9765C14.4044 15.8722 14.4095 15.6631 14.4497 15.3493L14.6774 13.5738L14.2938 13.5245L14.346 13.1177L14.7296 13.167L14.8276 12.4027L15.388 12.1557L15.2497 13.2338L15.7757 13.3013L15.7235 13.7082L15.1975 13.6406L14.9662 15.4452C14.947 15.5943 14.9435 15.6914 14.9554 15.7362C14.9693 15.7813 14.995 15.8191 15.0325 15.8495C15.0718 15.8801 15.1303 15.9005 15.2078 15.9104C15.2659 15.9179 15.3433 15.9209 15.4399 15.9195ZM18.1342 15.731L18.6662 15.8672C18.5404 16.1721 18.3511 16.3968 18.0982 16.5416C17.8454 16.6863 17.5397 16.7357 17.1813 16.6897C16.73 16.6317 16.3893 16.4471 16.1595 16.136C15.9318 15.8232 15.8501 15.4159 15.9144 14.9142C15.981 14.395 16.1663 14.0092 16.4704 13.7568C16.7745 13.5045 17.1397 13.4056 17.5659 13.4604C17.9785 13.5134 18.2976 13.6971 18.5231 14.0116C18.7486 14.3261 18.8287 14.7381 18.7633 15.2476C18.7594 15.2786 18.7524 15.325 18.7425 15.3867L16.4411 15.0911C16.417 15.4326 16.4796 15.7045 16.6289 15.9069C16.7783 16.1092 16.9817 16.2269 17.2394 16.26C17.4312 16.2846 17.6013 16.2552 17.7498 16.1719C17.8984 16.0886 18.0265 15.9416 18.1342 15.731ZM16.5253 14.6648L18.2485 14.8861C18.2585 14.6235 18.2176 14.4204 18.1258 14.2766C17.985 14.0538 17.7819 13.9253 17.5165 13.8912C17.2763 13.8603 17.0636 13.9147 16.8783 14.0544C16.695 14.1943 16.5773 14.3977 16.5253 14.6648ZM19.2011 16.8782L19.5968 13.7921L20.0676 13.8526L20.0076 14.3204C20.1557 14.117 20.2847 13.9868 20.3944 13.93C20.506 13.8735 20.6228 13.853 20.7448 13.8687C20.9211 13.8913 21.0931 13.9705 21.2608 14.1063L21.0184 14.5684C20.9002 14.4765 20.7772 14.4223 20.6494 14.4058C20.5351 14.3911 20.4279 14.4128 20.328 14.4709C20.2282 14.527 20.1511 14.6136 20.0967 14.7307C20.0148 14.9092 19.9596 15.1088 19.9313 15.3297L19.7241 16.9454L19.2011 16.8782ZM24.4865 16.0388L25.032 16.2536C24.8545 16.7014 24.596 17.0276 24.2567 17.2322C23.9196 17.435 23.5292 17.5079 23.0856 17.451C22.6265 17.392 22.2645 17.251 21.9997 17.0279C21.7371 16.8032 21.553 16.5039 21.4473 16.1299C21.3436 15.7563 21.3178 15.366 21.37 14.9592C21.4269 14.5155 21.5607 14.1399 21.7715 13.8322C21.9844 13.5228 22.2578 13.3029 22.5915 13.1725C22.9275 13.0404 23.2834 12.9985 23.6592 13.0467C24.0854 13.1015 24.4298 13.256 24.6926 13.5103C24.9554 13.7646 25.1187 14.0957 25.1825 14.5037L24.6108 14.5631C24.5517 14.2405 24.4373 13.9964 24.2675 13.8308C24.0977 13.6653 23.8705 13.5642 23.5857 13.5276C23.2583 13.4856 22.9741 13.5288 22.7332 13.6574C22.4941 13.7862 22.3131 13.9776 22.1899 14.2315C22.067 14.4835 21.9876 14.75 21.9515 15.0309C21.9051 15.3932 21.9168 15.7166 21.9866 16.0013C22.0586 16.2843 22.1975 16.5069 22.4031 16.6692C22.6087 16.8315 22.8414 16.9293 23.1009 16.9626C23.4167 17.0032 23.6957 16.9465 23.938 16.7925C24.1802 16.6385 24.3631 16.3873 24.4865 16.0388ZM27.5518 17.5638C27.337 17.7036 27.1352 17.7958 26.9463 17.8405C26.7594 17.8854 26.5632 17.8947 26.3579 17.8683C26.0189 17.8248 25.7689 17.709 25.6079 17.5209C25.4472 17.3309 25.3833 17.1071 25.4164 16.8494C25.4357 16.6983 25.4873 16.5651 25.571 16.4499C25.6569 16.3329 25.7599 16.2437 25.88 16.1824C26.002 16.1212 26.1353 16.0803 26.2797 16.0594C26.3859 16.0455 26.5442 16.0392 26.7547 16.0407C27.1835 16.0446 27.5021 16.0244 27.7106 15.9803C27.7217 15.9089 27.7285 15.8635 27.731 15.8441C27.7583 15.631 27.7282 15.4745 27.6406 15.3747C27.522 15.2393 27.331 15.1547 27.0676 15.1209C26.8216 15.0893 26.6339 15.1095 26.5045 15.1815C26.3774 15.2518 26.2717 15.3928 26.1874 15.6045L25.6849 15.4691C25.7595 15.2561 25.8586 15.0897 25.9823 14.9697C26.1062 14.8478 26.2735 14.7639 26.4842 14.7181C26.6951 14.6704 26.9333 14.6635 27.1987 14.6976C27.4621 14.7315 27.6722 14.79 27.8289 14.8731C27.9856 14.9562 28.0966 15.0503 28.162 15.1551C28.2275 15.2581 28.2666 15.3832 28.2792 15.5305C28.2852 15.6219 28.2733 15.7838 28.2435 16.0163L28.1541 16.7137C28.0918 17.2 28.0629 17.5093 28.0676 17.6419C28.0744 17.7727 28.1032 17.9015 28.1539 18.0281L27.6076 17.9579C27.5673 17.8425 27.5487 17.7111 27.5518 17.5638ZM27.658 16.3901C27.4583 16.4432 27.165 16.4725 26.7784 16.4779C26.5594 16.4813 26.4028 16.4966 26.3088 16.5239C26.2147 16.5512 26.1386 16.5996 26.0805 16.6689C26.0226 16.7363 25.9878 16.8155 25.9761 16.9066C25.9583 17.046 25.9957 17.169 26.0883 17.2754C26.183 17.3821 26.332 17.4485 26.5354 17.4746C26.7369 17.5005 26.9216 17.4799 27.0897 17.4129C27.2581 17.3439 27.3889 17.2377 27.4821 17.0941C27.5534 16.9831 27.6039 16.8124 27.6334 16.5818L27.658 16.3901ZM28.7961 18.1106L29.1918 15.0245L29.6626 15.085L29.6026 15.5528C29.7508 15.3493 29.8797 15.2192 29.9894 15.1624C30.101 15.1058 30.2178 15.0854 30.3398 15.1011C30.5161 15.1237 30.6881 15.2029 30.8558 15.3387L30.6134 15.8008C30.4953 15.7088 30.3722 15.6546 30.2444 15.6382C30.1301 15.6235 30.0229 15.6452 29.923 15.7033C29.8232 15.7594 29.7461 15.846 29.6918 15.963C29.6098 16.1416 29.5546 16.3412 29.5263 16.5621L29.3192 18.1778L28.7961 18.1106ZM32.7858 18.623L32.8357 18.2336C32.6008 18.5146 32.2935 18.6307 31.9138 18.5819C31.6678 18.5503 31.4498 18.4534 31.2599 18.2912C31.072 18.1292 30.9364 17.9198 30.8531 17.6629C30.7721 17.4044 30.7518 17.1173 30.7923 16.8015C30.8318 16.4935 30.9189 16.2211 31.0536 15.9844C31.1886 15.7457 31.3673 15.5727 31.5898 15.4654C31.8123 15.3581 32.0504 15.3208 32.3042 15.3534C32.4902 15.3773 32.6507 15.4383 32.7858 15.5363C32.9212 15.6325 33.0263 15.7494 33.1012 15.887L33.2972 14.3585L33.8173 14.4253L33.2711 18.6853L32.7858 18.623ZM31.3299 16.8705C31.2792 17.2657 31.3246 17.5719 31.4661 17.7889C31.6076 18.006 31.7917 18.1291 32.0184 18.1582C32.247 18.1875 32.4526 18.1194 32.6353 17.9539C32.8202 17.7866 32.9372 17.5112 32.9864 17.1276C33.0406 16.7053 32.9989 16.3849 32.8616 16.1664C32.7242 15.9479 32.5363 15.8233 32.2981 15.7927C32.0656 15.7628 31.8587 15.8328 31.6775 16.0025C31.4982 16.1724 31.3823 16.4618 31.3299 16.8705Z" fill="white"/>
</svg>
