<svg width="39" height="26" viewBox="0 0 39 26" fill="none" xmlns="http://www.w3.org/2000/svg">
<path d="M1.71652 0.744873H36.4225C36.8709 0.756928 37.2963 0.945887 37.6059 1.27075C37.9156 1.59562 38.0842 2.0299 38.075 2.47876V24.1516C38.0842 24.6005 37.9156 25.0348 37.6059 25.3596C37.2963 25.6845 36.8709 25.8734 36.4225 25.8855H1.71652C1.2681 25.8734 0.842558 25.6845 0.53294 25.3596C0.223321 25.0348 0.0547163 24.6005 0.0638496 24.1516V2.47974C0.0544488 2.0307 0.223049 1.59632 0.532696 1.27124C0.842342 0.946158 1.26792 0.756927 1.71652 0.744873Z" fill="#F1F1F1"/>
<path d="M0.475373 25.2947C0.209979 24.9739 0.0654345 24.57 0.0667795 24.1536V2.47974C0.0573788 2.0307 0.225857 1.59632 0.535504 1.27124C0.84515 0.946158 1.27073 0.756927 1.71933 0.744873H36.4243C36.8456 0.745819 37.2497 0.912333 37.5493 1.20874L0.480374 25.2947H0.475373Z" fill="white" fill-opacity="0.73"/>
<path d="M14.6997 18.7098L15.9986 16.3597L15.2752 10.7156H17.0447L17.3305 14.056L19.0621 10.7156H20.8885L16.6831 18.7098H14.6997ZM9.15127 14.494C9.42405 13.12 10.7499 12.6839 12.7103 12.6839C12.8272 12.0729 12.4386 11.9197 11.7771 11.9427C11.1939 11.971 10.6206 12.1042 10.0846 12.3358L10.2394 10.9627C10.883 10.7626 11.5496 10.6452 12.2228 10.6136C13.4478 10.5916 14.8096 10.983 14.4989 12.576L13.7405 16.326H11.9709L12.0868 15.7576C11.8814 15.9698 11.6359 16.1391 11.3645 16.2552C11.0931 16.3713 10.8014 16.432 10.5062 16.4339C9.66792 16.4299 8.92157 15.8836 9.15237 14.4896L9.15127 14.494ZM10.9608 14.4066C10.9051 14.4855 10.8735 14.5791 10.8697 14.6756C10.8659 14.7722 10.8902 14.868 10.9396 14.951C10.9889 15.034 11.0612 15.1011 11.1478 15.1439C11.2344 15.1866 11.3316 15.203 11.4274 15.1917C11.6464 15.2015 11.8614 15.1318 12.033 14.9954C12.2047 14.8591 12.3214 14.6656 12.3616 14.45C12.3848 14.2815 12.4181 14.1145 12.4615 13.95H12.0139C11.8145 13.9315 11.6137 13.9632 11.4298 14.0423C11.2458 14.1214 11.0846 14.2452 10.9608 14.4027V14.4066ZM3.0564 16.326L4.51916 9.15364H7.82341C8.11796 9.15102 8.40887 9.21925 8.67169 9.35237C8.93452 9.48549 9.16164 9.67969 9.33398 9.91877C9.50632 10.1579 9.61888 10.4348 9.6622 10.7264C9.70552 11.018 9.6783 11.3156 9.58292 11.5946C9.48781 12.2504 9.15934 12.8498 8.65779 13.2825C8.15624 13.7152 7.51543 13.9526 6.85327 13.95H5.47137L4.99679 16.326H3.0564ZM5.74714 12.576H6.65641C6.92239 12.5548 7.17422 12.4473 7.37407 12.2703C7.57393 12.0934 7.71098 11.8562 7.76449 11.5946C7.80643 11.4869 7.82182 11.371 7.80938 11.2562C7.79694 11.1413 7.75704 11.031 7.69302 10.9349C7.62901 10.8387 7.54278 10.7597 7.44164 10.7039C7.34051 10.6482 7.22738 10.6173 7.11196 10.6146H6.16281L5.74714 12.576Z" fill="#3284AE"/>
<path d="M26.3539 14.4895C26.6297 13.1155 27.9695 12.6809 29.9569 12.6809C30.0947 12.0689 29.7012 11.9177 29.0317 11.9397C28.4361 11.9704 27.8501 12.103 27.2992 12.3318L27.457 10.9587C28.1162 10.7611 28.797 10.6441 29.4844 10.6106C30.7243 10.5886 32.0821 10.9795 31.7674 12.5715L31 16.3206H29.2285L29.3464 15.7546C28.9172 16.1838 28.3364 16.4269 27.7297 16.4309C26.8724 16.4299 26.1171 15.8845 26.3539 14.4895ZM28.1854 14.4026C28.1315 14.4842 28.1022 14.5797 28.1011 14.6775C28.1 14.7753 28.1271 14.8711 28.179 14.9539C28.231 15.0367 28.3056 15.1028 28.3941 15.1443C28.4826 15.1857 28.5812 15.2009 28.678 15.1877C28.8956 15.1975 29.1093 15.1276 29.2794 14.9915C29.4496 14.8554 29.5646 14.6621 29.6031 14.4475C29.6421 14.2725 29.6622 14.1195 29.7032 13.9475H29.2704C29.0656 13.9268 28.859 13.9576 28.669 14.0369C28.479 14.1161 28.3118 14.2414 28.1823 14.4016L28.1854 14.4026ZM31.8183 16.3206L33.2832 9.12671H35.1016L33.6179 16.3206H31.8183ZM20.259 16.3206L21.7198 9.14966H25.017C25.3107 9.14886 25.6004 9.21815 25.862 9.35181C26.1236 9.48546 26.3496 9.67966 26.5213 9.91821C26.6929 10.1568 26.8052 10.4327 26.8489 10.7234C26.8926 11.0141 26.8664 11.3111 26.7725 11.5896C26.6773 12.2478 26.3469 12.849 25.8426 13.282C25.3383 13.715 24.6943 13.9505 24.0298 13.9446H22.668L22.1744 16.3196L20.259 16.3206ZM22.9438 12.5715H23.831C24.0991 12.5509 24.3535 12.4445 24.5563 12.2678C24.7592 12.0911 24.8997 11.8535 24.9571 11.5906C24.9969 11.4815 25.0101 11.3645 24.9956 11.2493C24.981 11.134 24.9393 11.0238 24.8737 10.928C24.8081 10.8321 24.7206 10.7537 24.6185 10.6985C24.5164 10.6433 24.4027 10.613 24.2867 10.6106H23.3395L22.9438 12.5715Z" fill="#3CA9C7"/>
</svg>
