<svg width="39" height="26" viewBox="0 0 39 26" fill="none" xmlns="http://www.w3.org/2000/svg">
<path d="M1.72112 0.58374H36.6919C36.915 0.588031 37.1351 0.636345 37.3396 0.72583C37.5442 0.815315 37.7291 0.944186 37.8837 1.10522C38.0384 1.26626 38.1598 1.45626 38.2411 1.66431C38.3224 1.87235 38.362 2.09429 38.3575 2.31763V23.9919C38.362 24.2153 38.3224 24.4372 38.2411 24.6453C38.1598 24.8533 38.0384 25.0433 37.8837 25.2043C37.7291 25.3654 37.5442 25.4943 37.3396 25.5837C37.1351 25.6732 36.915 25.7215 36.6919 25.7258H1.72112C1.49796 25.7215 1.27786 25.6732 1.07335 25.5837C0.868838 25.4943 0.683934 25.3654 0.529247 25.2043C0.37456 25.0433 0.253044 24.8533 0.171758 24.6453C0.090472 24.4372 0.0510172 24.2153 0.0555223 23.9919V2.31763C0.0510172 2.09429 0.090472 1.87235 0.171758 1.66431C0.253044 1.45626 0.37456 1.26626 0.529247 1.10522C0.683934 0.944186 0.868838 0.815315 1.07335 0.72583C1.27786 0.636345 1.49796 0.588031 1.72112 0.58374Z" fill="url(#paint0_linear_504_2)"/>
<path d="M30.0021 17.8098L29.7504 16.5149H27.0187L26.5701 17.8098H24.3299L27.5342 9.74487C27.6087 9.54488 27.7453 9.37385 27.9238 9.25708C28.1023 9.14031 28.3135 9.08399 28.5264 9.09595H30.254L31.9745 17.8108L30.0021 17.8098ZM28.7672 11.4656L27.6381 14.7268H29.4027L28.7672 11.4656ZM21.4863 11.5798C21.4863 12.5318 24.4838 12.7356 24.4838 14.9246C24.4838 17.0326 22.2706 17.8079 20.8049 17.8079C19.9718 17.8216 19.1451 17.6594 18.3789 17.3318L18.6986 15.4417C19.5779 16.1617 22.2447 16.3669 22.2447 15.2239C22.2447 14.0809 19.2722 14.0537 19.2722 11.8777C19.2722 9.56569 21.8041 9.0896 22.8692 9.0896C23.5289 9.10653 24.1815 9.23066 24.8015 9.45679L24.4948 11.2659C23.5775 10.7539 21.4844 10.6317 21.4844 11.5837L21.4863 11.5798ZM14.9078 17.8098L16.2507 9.09448H18.3999L17.057 17.8098H14.9078ZM9.75515 17.8098L7.89062 10.2478C8.22 10.4537 8.53425 10.683 8.83087 10.9338C9.72714 11.7014 10.4091 12.6883 10.8102 13.7986L11.053 15.0896L13.1023 9.09595H15.4153L11.9962 17.8108L9.75515 17.8098ZM5.96425 9.33374L5.86436 9.30396L5.96425 9.33374ZM5.74447 9.2688L5.69653 9.25562L5.74447 9.2688ZM6.27308 9.43872L6.14513 9.3938L6.27308 9.43872ZM7.7628 10.1638C7.69619 10.1225 7.6295 10.0827 7.56289 10.0447C7.62684 10.0887 7.69278 10.1267 7.76072 10.1687L7.7628 10.1638ZM7.24919 9.87378C7.19124 9.84378 7.13136 9.81194 7.07441 9.78394C7.12936 9.81694 7.18829 9.84866 7.24724 9.87866L7.24919 9.87378ZM6.7146 9.61694L6.59678 9.56567L6.7146 9.61694Z" fill="#494CA3"/>
<path d="M10.8074 13.8027L10.084 9.88476C10.046 9.64861 9.91937 9.43591 9.72998 9.29003C9.54058 9.14415 9.3027 9.07641 9.06488 9.10009H5.6777L5.6377 9.24706C6.81377 9.56445 7.90368 10.1419 8.82704 10.937C9.72382 11.7047 10.4062 12.692 10.8074 13.8027Z" fill="#FFC000"/>
<defs>
<linearGradient id="paint0_linear_504_2" x1="19.2065" y1="25.7258" x2="19.2065" y2="0.58374" gradientUnits="userSpaceOnUse">
<stop stop-color="#E59703"/>
<stop offset="0.231" stop-color="#E59703"/>
<stop offset="0.234" stop-color="white"/>
<stop offset="0.761" stop-color="white"/>
<stop offset="0.766" stop-color="#5457BB"/>
<stop offset="1" stop-color="#5457BB"/>
</linearGradient>
</defs>
</svg>
